<svg width="600" height="600" viewBox="0 0 600 600" fill="none" xmlns="http://www.w3.org/2000/svg">
<g clip-path="url(#clip0_3_31)">
<rect width="600" height="600" rx="300" fill="white"/>
<mask id="mask0_3_31" style="mask-type:luminance" maskUnits="userSpaceOnUse" x="-97" y="-261" width="794" height="1123">
<path d="M-97 -261H696.701V861.52H-97V-261Z" fill="white"/>
</mask>
<g mask="url(#mask0_3_31)">
<path d="M514.882 237.232C514.882 294.669 468.319 341.232 410.882 341.232C353.445 341.232 306.882 294.669 306.882 237.232C306.882 179.794 353.445 133.232 410.882 133.232C468.319 133.232 514.882 179.794 514.882 237.232Z" fill="#0F1E2C"/>
<path d="M453.377 237.59C453.377 261.059 434.351 280.084 410.882 280.084C387.413 280.084 368.387 261.059 368.387 237.59C368.387 214.12 387.413 195.095 410.882 195.095C434.351 195.095 453.377 214.12 453.377 237.59Z" fill="white"/>
</g>
<path d="M294.379 127.232H353.87L404.062 347.232H271.631L256.487 312.781L196.73 412.512L119.918 412.956L294.379 127.232Z" fill="#0F1E2C"/>
<path d="M358.654 121.232H349.084H297.745H291.013L287.504 126.978L120.409 400.64L109.188 419.017L130.72 418.893L193.388 418.53L200.141 418.492L203.612 412.698L255.666 325.824L264.562 346.061L267.714 353.232H275.548H396.538H411.584L408.237 338.562L360.784 130.562L358.654 121.232ZM349.084 133.232L396.538 341.232H275.548L257.308 299.737L193.318 406.53L130.65 406.893L297.745 133.232H349.084Z" fill="white"/>
<path d="M263.594 289.888L299.818 229.031L313.946 289.888H263.594Z" fill="white"/>
<mask id="mask1_3_31" style="mask-type:luminance" maskUnits="userSpaceOnUse" x="33" y="14" width="525" height="476">
<path d="M33 14H558V490H33V14Z" fill="white"/>
</mask>
<g mask="url(#mask1_3_31)">
<path d="M219.824 382.524H244.978L251.36 372.762H264.853L250.797 394.913H267.88C267.88 394.913 274.449 396.04 274.074 401.858C274.074 401.858 274.449 407.302 268.254 408.992C268.254 408.992 260.362 411.557 251.924 408.992C251.924 408.992 243.664 405.988 243.476 395.664H216.445C216.445 395.664 215.9 410.824 226.018 418.753C226.018 418.753 233.937 426.449 246.104 428.514C246.104 428.514 261.517 431.482 275.2 428.514C275.2 428.514 287.965 427.2 295.849 417.626C295.849 417.626 301.576 411.348 301.481 401.306C301.481 401.306 301.261 391.422 291.194 386.598C291.194 386.598 288.048 385.026 281.208 384.964L304.313 351.926H238.869L219.824 382.524Z" fill="#0F1E2C"/>
<path d="M312.675 382.524H337.829L344.211 372.762H357.704L343.648 394.913H360.731C360.731 394.913 367.3 396.04 366.925 401.858C366.925 401.858 367.3 407.302 361.105 408.992C361.105 408.992 353.213 411.557 344.775 408.992C344.775 408.992 336.515 405.988 336.327 395.664H309.296C309.296 395.664 308.751 410.824 318.869 418.753C318.869 418.753 326.788 426.449 338.955 428.514C338.955 428.514 354.368 431.482 368.051 428.514C368.051 428.514 380.816 427.2 388.7 417.626C388.7 417.626 394.427 411.348 394.332 401.306C394.332 401.306 394.112 391.422 384.045 386.598C384.045 386.598 380.899 385.026 374.059 384.964L397.164 351.926H331.72L312.675 382.524Z" fill="#0F1E2C"/>
<path d="M281.596 133.232L115.316 406.893H66.5636L237.197 133.232H281.596Z" fill="#E42837"/>
</g>
</g>
<defs>
<clipPath id="clip0_3_31">
<rect width="600" height="600" rx="300" fill="white"/>
</clipPath>
</defs>
</svg>
