<svg width="32" height="32" viewBox="0 0 600 600" fill="none" xmlns="http://www.w3.org/2000/svg">
<rect width="600" height="600" fill="#0a0a0a"/>
<g clip-path="url(#clip0_3_31)">
<mask id="mask0_3_31" style="mask-type:luminance" maskUnits="userSpaceOnUse" x="-97" y="-261" width="794" height="1123">
<path d="M-97 -261H696.701V861.52H-97V-261Z" fill="white"/>
</mask>
<g mask="url(#mask0_3_31)">
<path d="M410.882 335.232C465.006 335.232 508.882 291.355 508.882 237.232C508.882 183.108 465.006 139.232 410.882 139.232C356.758 139.232 312.882 183.108 312.882 237.232C312.882 291.355 356.758 335.232 410.882 335.232Z" fill="#0F1E2C" stroke="white" stroke-width="12"/>
<path d="M410.882 274.084C431.038 274.084 447.376 257.745 447.376 237.589C447.376 217.434 431.038 201.095 410.882 201.095C390.727 201.095 374.387 217.434 374.387 237.589C374.387 257.745 390.727 274.084 410.882 274.084Z" fill="white" stroke="white" stroke-width="12"/>
</g>
<path d="M294.379 127.232H353.87L404.062 347.232H271.631L256.487 312.781L196.73 412.512L119.918 412.956L294.379 127.232Z" fill="#0F1E2C"/>
<path d="M358.654 121.232H349.084H297.745H291.013L287.504 126.978L120.409 400.64L109.188 419.017L130.72 418.893L193.388 418.53L200.141 418.492L203.612 412.698L255.666 325.824L264.562 346.061L267.714 353.232H275.548H396.538H411.584L408.237 338.562L360.784 130.562L358.654 121.232ZM349.084 133.232L396.538 341.232H275.548L257.308 299.737L193.318 406.53L130.65 406.893L297.745 133.232H349.084Z" fill="white"/>
<path d="M263.594 289.888L299.818 229.031L313.946 289.888H263.594Z" fill="white"/>
<mask id="mask1_3_31" style="mask-type:luminance" maskUnits="userSpaceOnUse" x="33" y="14" width="525" height="476">
<path d="M33 14H558V490H33V14Z" fill="white"/>
</mask>
<g mask="url(#mask1_3_31)">
<path d="M221.824 383.524H246.978L253.36 373.762H266.853L252.797 395.913H269.88C269.88 395.913 276.449 397.04 276.074 402.858C276.074 402.858 276.449 408.302 270.254 409.992C270.254 409.992 262.362 412.557 253.924 409.992C253.924 409.992 245.664 406.988 245.476 396.664H218.445C218.445 396.664 217.9 411.824 228.018 419.753C228.018 419.753 235.937 427.449 248.104 429.514C248.104 429.514 263.517 432.482 277.2 429.514C277.2 429.514 289.965 428.2 297.849 418.626C297.849 418.626 303.576 412.348 303.481 402.306C303.481 402.306 303.261 392.422 293.194 387.598C293.194 387.598 290.048 386.026 283.208 385.964L306.313 352.926H240.869L221.824 383.524Z" fill="white"/>
<path d="M314.675 383.524H339.829L346.211 373.762H359.704L345.648 395.913H362.731C362.731 395.913 369.3 397.04 368.925 402.858C368.925 402.858 369.3 408.302 363.105 409.992C363.105 409.992 355.213 412.557 346.775 409.992C346.775 409.992 338.515 406.988 338.327 396.664H311.296C311.296 396.664 310.751 411.824 320.869 419.753C320.869 419.753 328.788 427.449 340.955 429.514C340.955 429.514 356.368 432.482 370.051 429.514C370.051 429.514 382.816 428.2 390.7 418.626C390.7 418.626 396.427 412.348 396.332 402.306C396.332 402.306 396.112 392.422 386.045 387.598C386.045 387.598 382.899 386.026 376.059 385.964L399.164 352.926H333.72L314.675 383.524Z" fill="white"/>
<path d="M281.596 133.232L115.316 406.893H66.5636L237.197 133.232H281.596Z" fill="#E42837"/>
</g>
</g>
<defs>
<clipPath id="clip0_3_31">
<rect width="600" height="600" fill="white"/>
</clipPath>
</defs>
</svg>
